<svg width="14" height="16" viewBox="0 0 14 16" fill="none" xmlns="http://www.w3.org/2000/svg">
<path d="M13 4.07357C10.78 3.85357 8.54667 3.74023 6.32 3.74023C5 3.74023 3.68 3.8069 2.36 3.94023L1 4.07357" stroke="#FF7474" stroke-linecap="round" stroke-linejoin="round"/>
<path d="M4.66602 3.39992L4.81268 2.52659C4.91935 1.89326 4.99935 1.41992 6.12602 1.41992H7.87268C8.99935 1.41992 9.08602 1.91992 9.18602 2.53326L9.33268 3.39992" stroke="#FF7474" stroke-linecap="round" stroke-linejoin="round"/>
<path d="M11.5669 6.17969L11.1336 12.893C11.0603 13.9397 11.0003 14.753 9.14026 14.753H4.86026C3.00026 14.753 2.94026 13.9397 2.86693 12.893L2.43359 6.17969" stroke="#FF7474" stroke-linecap="round" stroke-linejoin="round"/>
<path d="M5.88672 11.0859H8.10672" stroke="#FF7474" stroke-linecap="round" stroke-linejoin="round"/>
<path d="M5.33398 8.41992H8.66732" stroke="#FF7474" stroke-linecap="round" stroke-linejoin="round"/>
</svg>
