<svg width="21" height="16" viewBox="0 0 21 16" fill="none" xmlns="http://www.w3.org/2000/svg">
<path d="M16.1273 15.2771H11.8363V10.9412H13.2544C13.614 10.9412 13.8265 10.5325 13.614 10.2383L10.8555 6.42138C10.6798 6.17618 10.3161 6.17618 10.1404 6.42138L7.3819 10.2383C7.16939 10.5325 7.37781 10.9412 7.74152 10.9412H9.15958V15.2771H4.3537C2.20821 15.1586 0.5 13.1521 0.5 10.978C0.5 9.47818 1.31324 8.17046 2.5188 7.46347C2.40846 7.16515 2.35125 6.84639 2.35125 6.51129C2.35125 4.9788 3.5895 3.74055 5.12199 3.74055C5.453 3.74055 5.77176 3.79776 6.07009 3.9081C6.95689 2.02825 8.86943 0.724609 11.0926 0.724609C13.9696 0.728696 16.3398 2.93139 16.6095 5.73891C18.8204 6.11897 20.5 8.16638 20.5 10.4835C20.5 12.96 18.5711 15.1055 16.1273 15.2771Z" fill="white"/>
</svg>
