<svg width="26" height="26" viewBox="0 0 26 26" fill="none" xmlns="http://www.w3.org/2000/svg">
<path d="M10.832 20.5833C10.832 21.775 11.807 22.75 12.9987 22.75C14.1904 22.75 15.1654 21.775 15.1654 20.5833C15.1654 19.3917 14.1904 18.4167 12.9987 18.4167C11.807 18.4167 10.832 19.3917 10.832 20.5833Z" stroke="#A3B2C7" stroke-width="1.18182"/>
<path d="M10.832 5.41536C10.832 6.60703 11.807 7.58203 12.9987 7.58203C14.1904 7.58203 15.1654 6.60703 15.1654 5.41536C15.1654 4.2237 14.1904 3.2487 12.9987 3.2487C11.807 3.2487 10.832 4.2237 10.832 5.41536Z" stroke="#A3B2C7" stroke-width="1.18182"/>
<path d="M10.832 13.0013C10.832 14.193 11.807 15.168 12.9987 15.168C14.1904 15.168 15.1654 14.193 15.1654 13.0013C15.1654 11.8096 14.1904 10.8346 12.9987 10.8346C11.807 10.8346 10.832 11.8096 10.832 13.0013Z" stroke="#A3B2C7" stroke-width="1.18182"/>
</svg>
